<svg xmlns="http://www.w3.org/2000/svg" width="21.948" height="16.503" viewBox="0 0 21.948 16.503">
  <g id="メールの無料アイコン素材" transform="translate(0 -63.519)">
    <path id="パス_4824" data-name="パス 4824" d="M448.753,174.984l-2.833-2.942,2.833-2.442Z" transform="translate(-426.804 -101.534)" fill="#fffefe"/>
    <path id="パス_4825" data-name="パス 4825" d="M2.836,172.042,0,174.988V169.6Z" transform="translate(0 -101.534)" fill="#fffefe"/>
    <path id="パス_4826" data-name="パス 4826" d="M21.948,259.282v2.709a1.187,1.187,0,0,1-1.187,1.187H1.187A1.187,1.187,0,0,1,0,261.992v-2.709l4.242-4.4,4.846,4.174a2.987,2.987,0,0,0,3.776,0l4.842-4.174Z" transform="translate(0 -183.157)" fill="#fffefe"/>
    <path id="パス_4827" data-name="パス 4827" d="M21.948,64.7v1.187L11.6,74.805a1.01,1.01,0,0,1-1.248,0L0,65.889V64.7a1.184,1.184,0,0,1,1.187-1.183H20.762A1.184,1.184,0,0,1,21.948,64.7Z" fill="#fffefe"/>
  </g>
</svg>
