<svg id="logo" xmlns="http://www.w3.org/2000/svg" xmlns:xlink="http://www.w3.org/1999/xlink" width="72.478" height="101.117" viewBox="0 0 72.478 101.117">
  <defs>
    <clipPath id="clip-path">
      <rect id="長方形_83" data-name="長方形 83" width="72.478" height="101.117" fill="none"/>
    </clipPath>
  </defs>
  <path id="パス_4815" data-name="パス 4815" d="M57.469,0,54.746.1l-2.7.289L49.385.887l-2.637.68L44.2,2.433,41.687,3.485,39.285,4.7,36.991,6.1,34.8,7.65,32.766,9.362l-1.93,1.856L29.078,13.2H85.859l-1.78-1.98L82.172,9.362,80.113,7.65,77.926,6.1,75.631,4.7l-2.4-1.217L70.742,2.433l-2.573-.866L65.553.887,62.873.392,60.171.1Z" transform="translate(-21.23 0)" fill="#007fff"/>
  <path id="パス_4816" data-name="パス 4816" d="M98.885,180.371l-.269.3-1.5,1.61-.323.3-.6.584L95,184.264l-.6.5-.148.124-1.4,1.1-.763.56-1.953,1.3-.249.159-1.989,1.141-.626.344-2.519,1.172-1.994.639-2.016.433-2.08.247-2.08.041-2.08-.165-2.059-.35-1.994-.557-1.737-1.175-1.866-1.052-1.93-.866-2.016-.681-2.059-.515-2.123-.33-2.123-.144-2.144.021-2.123.227-2.08.412-2.059.6-1.973.763-1.908.949-1.8,1.093,2.037,1.711,2.166,1.547,2.273,1.382,2.38,1.237,2.466,1.052,2.552.866,2.595.68,2.638.495,2.68.309,2.7.124,2.7-.083,2.68-.268,2.659-.454,2.616-.66,2.552-.825,2.466-1.01,2.4-1.2,2.294-1.361,2.187-1.526,2.08-1.67,1.93-1.815,1.78-1.938,1.63-2.083.643-.948.815-1.237,1.287-2.268,1.115-2.371-.171.227Z" transform="translate(-31.033 -129.913)" fill="#007fff"/>
  <path id="パス_4817" data-name="パス 4817" d="M62.442,51l-2.294,2.207L57.768,55.5,55.28,57.888l-1.008.978-2.812,2.706-1.327,1.265-2.659,2.557-2.681,2.578-2.7,2.6-2.637,2.536-.815.8H16.232l9.328-8.97H.472L.193,66.8l-.058.738-.027.211-.01.261-.055.688L0,70.57l.086,2.536.086.8.193,1.732.493,2.495.665,2.454H70.934l.686-2.454.472-2.495.193-1.732.086-.8.107-2.536-.107-2.6-.3-2.578-.493-2.557-.707-2.5-.879-2.453L68.918,55.5l-1.265-2.288L66.216,51,64.63,48.9Z" transform="translate(0 -35.7)" fill="#007fff"/>
  <path id="パス_4818" data-name="パス 4818" d="M9.647,301.615l-4.4,6.793v-6.793H2.567v19.519H5.246v-8.228l.957-1.34,4.114,9.568h2.871L7.925,308.983l4.688-7.368Z" transform="translate(-1.874 -220.209)" fill="#007fff"/>
  <g id="グループ_29" data-name="グループ 29">
    <g id="グループ_28" data-name="グループ 28" clip-path="url(#clip-path)">
      <path id="パス_4819" data-name="パス 4819" d="M56.842,302.341a5.048,5.048,0,0,1,1.435,3.732v9.568a5.173,5.173,0,0,1-1.435,3.827,5.046,5.046,0,0,1-3.732,1.34,5.044,5.044,0,0,1-3.732-1.34,5.173,5.173,0,0,1-1.435-3.827v-9.568a5.172,5.172,0,0,1,1.435-3.827,5.713,5.713,0,0,1,7.463.1m-6.219,13.491a2.486,2.486,0,0,0,.574,1.818,3.069,3.069,0,0,0,3.827,0,2.485,2.485,0,0,0,.574-1.818v-9.951a2.485,2.485,0,0,0-.574-1.818,2.591,2.591,0,0,0-1.914-.67,2.312,2.312,0,0,0-2.488,2.488Z" transform="translate(-35.004 -219.691)" fill="#007fff"/>
      <path id="パス_4820" data-name="パス 4820" d="M96,309.94h4.976v-8.324h2.679v19.519h-2.679v-8.707H96v8.707H93.322V301.616H96Z" transform="translate(-68.134 -220.21)" fill="#007fff"/>
      <path id="パス_4821" data-name="パス 4821" d="M147.6,302.341a5.048,5.048,0,0,1,1.435,3.732v9.568a5.173,5.173,0,0,1-1.435,3.827,5.867,5.867,0,0,1-7.463,0,5.173,5.173,0,0,1-1.435-3.827v-9.568a5.172,5.172,0,0,1,1.435-3.827,5.713,5.713,0,0,1,7.463.1m-6.219,13.491a2.486,2.486,0,0,0,.574,1.818,3.069,3.069,0,0,0,3.827,0,2.485,2.485,0,0,0,.574-1.818v-9.951a2.485,2.485,0,0,0-.574-1.818,2.591,2.591,0,0,0-1.914-.67,2.312,2.312,0,0,0-2.488,2.488Z" transform="translate(-101.264 -219.691)" fill="#007fff"/>
      <path id="パス_4822" data-name="パス 4822" d="M186.756,308.409l4.4-6.793h2.966l-4.688,7.367,5.263,12.152h-2.87l-4.114-9.568-.957,1.34v8.229h-2.679V301.616h2.679Z" transform="translate(-134.394 -220.21)" fill="#007fff"/>
      <path id="パス_4823" data-name="パス 4823" d="M234.26,316.638a1.945,1.945,0,0,0,.479,1.435,2.069,2.069,0,0,0,1.531.574,1.812,1.812,0,0,0,1.339-.479,2.069,2.069,0,0,0,.574-1.531V301.616h2.679v15.022a4.794,4.794,0,0,1-1.244,3.54,4.679,4.679,0,0,1-3.445,1.148,4.275,4.275,0,0,1-3.158-1.244,4.589,4.589,0,0,1-1.435-3.349V301.616h2.679Z" transform="translate(-169.077 -220.21)" fill="#007fff"/>
    </g>
  </g>
</svg>
