<svg id="logo" xmlns="http://www.w3.org/2000/svg" xmlns:xlink="http://www.w3.org/1999/xlink" width="66.66" height="93" viewBox="0 0 66.66 93">
  <defs>
    <clipPath id="clip-path">
      <rect id="Rectangle_83" data-name="Rectangle 83" width="66.66" height="93" fill="none"/>
    </clipPath>
  </defs>
  <path id="Path_4815" data-name="Path 4815" d="M55.19,0l-2.5.1L50.2.361,47.755.816l-2.426.626-2.347.8-2.307.967L38.466,4.324l-2.11,1.29L34.344,7.036,32.47,8.61,30.7,10.317l-1.617,1.821H81.3l-1.637-1.821L77.91,8.61,76.016,7.036,74,5.614l-2.11-1.29L69.686,3.205,67.4,2.238l-2.367-.8L62.625.816,60.16.361,57.675.1Z" transform="translate(-21.86 0)" fill="#fffefe"/>
  <path id="Path_4816" data-name="Path 4816" d="M94.36,180.176l-.247.274-1.375,1.48-.3.275-.549.537-1.109,1.013-.551.459-.136.114-1.289,1.008-.7.515-1.8,1.2-.229.146-1.83,1.05-.575.316-2.317,1.078-1.834.588-1.854.4-1.913.228-1.913.038-1.913-.152-1.893-.322-1.834-.512-1.6-1.081-1.716-.967-1.775-.8-1.854-.626-1.893-.474-1.952-.3-1.952-.133-1.972.019-1.953.209-1.913.379-1.893.55-1.814.7-1.755.873L42.5,189.26l1.874,1.574,1.992,1.422,2.091,1.271,2.189,1.138,2.268.967,2.347.8,2.386.626,2.426.455,2.465.284,2.485.114,2.485-.076,2.465-.246,2.445-.417,2.406-.607,2.347-.759,2.268-.929,2.209-1.1,2.11-1.252,2.012-1.4,1.913-1.536,1.775-1.669,1.637-1.783,1.5-1.916.592-.872.749-1.138,1.183-2.086,1.025-2.181-.158.209Z" transform="translate(-31.953 -133.768)" fill="#fffefe"/>
  <path id="Path_4817" data-name="Path 4817" d="M57.43,50.832l-2.11,2.03-2.189,2.1-2.288,2.2-.927.9L47.33,60.554l-1.22,1.164L43.664,64.07,41.2,66.44l-2.485,2.39-2.426,2.333-.749.74H14.929l8.579-8.25H.434L.177,65.359l-.054.679L.1,66.232l-.009.24L.04,67.1,0,68.83l.079,2.333.079.74L.335,73.5.789,75.79,1.4,78.047H65.24l.631-2.257L66.3,73.5l.177-1.593.079-.74.1-2.333-.1-2.39-.276-2.371-.454-2.352-.651-2.295-.809-2.256-.986-2.2-1.164-2.1L60.9,50.832,59.442,48.9Z" transform="translate(0 -36.759)" fill="#fffefe"/>
  <path id="Path_4818" data-name="Path 4818" d="M9.079,301.615l-4.048,6.248v-6.248H2.567v17.952H5.031V312l.88-1.232,3.784,8.8h2.64L7.5,308.392l4.312-6.776Z" transform="translate(-1.93 -226.744)" fill="#fffefe"/>
  <g id="Group_29" data-name="Group 29">
    <g id="Group_28" data-name="Group 28" clip-path="url(#clip-path)">
      <path id="Path_4819" data-name="Path 4819" d="M56.128,302.226a4.643,4.643,0,0,1,1.32,3.432v8.8a4.758,4.758,0,0,1-1.32,3.52,4.642,4.642,0,0,1-3.432,1.232,4.639,4.639,0,0,1-3.432-1.232,4.758,4.758,0,0,1-1.32-3.52v-8.8a4.757,4.757,0,0,1,1.32-3.52,5.254,5.254,0,0,1,6.864.088m-5.72,12.408a2.287,2.287,0,0,0,.528,1.672,2.823,2.823,0,0,0,3.52,0,2.286,2.286,0,0,0,.528-1.672v-9.152a2.285,2.285,0,0,0-.528-1.672,2.383,2.383,0,0,0-1.76-.616,2.126,2.126,0,0,0-2.288,2.288Z" transform="translate(-36.043 -226.211)" fill="#fffefe"/>
      <path id="Path_4820" data-name="Path 4820" d="M95.786,309.272h4.576v-7.656h2.464v17.952h-2.464V311.56H95.786v8.008H93.322V301.616h2.464Z" transform="translate(-70.156 -226.745)" fill="#fffefe"/>
      <path id="Path_4821" data-name="Path 4821" d="M146.883,302.226a4.643,4.643,0,0,1,1.32,3.432v8.8a4.758,4.758,0,0,1-1.32,3.52,5.4,5.4,0,0,1-6.864,0,4.757,4.757,0,0,1-1.32-3.52v-8.8a4.757,4.757,0,0,1,1.32-3.52,5.254,5.254,0,0,1,6.864.088m-5.72,12.408a2.287,2.287,0,0,0,.528,1.672,2.823,2.823,0,0,0,3.52,0,2.286,2.286,0,0,0,.528-1.672v-9.152a2.285,2.285,0,0,0-.528-1.672,2.383,2.383,0,0,0-1.76-.616,2.126,2.126,0,0,0-2.288,2.288Z" transform="translate(-104.269 -226.211)" fill="#fffefe"/>
      <path id="Path_4822" data-name="Path 4822" d="M186.54,307.864l4.048-6.248h2.728L189,308.392l4.84,11.176H191.2l-3.784-8.8L186.54,312v7.568h-2.464V301.616h2.464Z" transform="translate(-138.382 -226.744)" fill="#fffefe"/>
      <path id="Path_4823" data-name="Path 4823" d="M234.045,315.432a1.789,1.789,0,0,0,.44,1.32,1.9,1.9,0,0,0,1.408.528,1.667,1.667,0,0,0,1.232-.44,1.9,1.9,0,0,0,.528-1.408V301.616h2.464v13.816a4.409,4.409,0,0,1-1.144,3.256,4.3,4.3,0,0,1-3.168,1.056,3.932,3.932,0,0,1-2.9-1.144,4.221,4.221,0,0,1-1.32-3.08v-13.9h2.464Z" transform="translate(-174.094 -226.744)" fill="#fffefe"/>
    </g>
  </g>
</svg>
